<svg width="100%" height="150" viewBox="0 0 600 150" xmlns="http://www.w3.org/2000/svg" role="img" aria-label="Sharadh Naidu">
  <defs>
    <filter id="glow-d" x="-30%" y="-30%" width="160%" height="160%">
      <feGaussianBlur stdDeviation="2.2" result="blur"/>
      <feMerge>
        <feMergeNode in="blur"/>
        <feMergeNode in="SourceGraphic"/>
      </feMerge>
    </filter>
    <linearGradient id="fade-d" x1="0" x2="1" y1="0" y2="0">
      <stop offset="0%" stop-color="#fff" stop-opacity="0"/>
      <stop offset="10%" stop-color="#fff" stop-opacity="1"/>
      <stop offset="90%" stop-color="#fff" stop-opacity="1"/>
      <stop offset="100%" stop-color="#fff" stop-opacity="0"/>
    </linearGradient>
    <mask id="mask-d">
      <rect x="0" y="0" width="600" height="150" fill="url(#fade-d)"/>
    </mask>
    <linearGradient id="shine-d" gradientUnits="userSpaceOnUse" x1="-160" y1="0" x2="-40" y2="0">
      <stop offset="0%" stop-color="#c7c7d1"/>
      <stop offset="42%" stop-color="#c7c7d1"/>
      <stop offset="50%" stop-color="#ffffff"/>
      <stop offset="58%" stop-color="#c7c7d1"/>
      <stop offset="100%" stop-color="#c7c7d1"/>
      <animateTransform attributeName="gradientTransform" type="translate"
        values="0 0;0 0;760 0;760 0" keyTimes="0;0.08;0.5;1"
        dur="5s" repeatCount="indefinite" calcMode="linear"/>
    </linearGradient>
  </defs>

  <g mask="url(#mask-d)">
    <line x1="0" y1="110" x2="600" y2="110" stroke="#8b8b96" stroke-width="0.5" stroke-opacity="0.25"/>
    <g>
      <animateTransform attributeName="transform" type="translate" from="0 0" to="-300 0" dur="6s" repeatCount="indefinite" calcMode="linear"/>
      <path d="M0,110 L18,110 L22,102 L26,110 L50,110 L54,118 L58,110 L90,110 L94,72 L100,148 L106,110 L150,110 L154,104 L158,110 L190,110 L194,120 L198,110 L230,110 L234,80 L240,110 L300,110"
            fill="none" stroke="#8b8b96" stroke-width="1.3" stroke-opacity="0.55" stroke-linecap="round" stroke-linejoin="round"/>
      <path d="M300,110 L318,110 L322,102 L326,110 L350,110 L354,118 L358,110 L390,110 L394,72 L400,148 L406,110 L450,110 L454,104 L458,110 L490,110 L494,120 L498,110 L530,110 L534,80 L540,110 L600,110"
            fill="none" stroke="#8b8b96" stroke-width="1.3" stroke-opacity="0.55" stroke-linecap="round" stroke-linejoin="round"/>
    </g>
  </g>

  <text x="300" y="58" text-anchor="middle" dominant-baseline="middle"
        font-family="'JetBrains Mono','Courier New',monospace" font-size="34" font-weight="700"
        letter-spacing="4" fill="url(#shine-d)" filter="url(#glow-d)">SHARADH NAIDU</text>
</svg>
